# xmcd
#
# Track frame offsets: 
#        300
#        22562
#        39381
#        53132
#        71178
#        86971
#        116111
#        129878
#        138702
#        161522
#        186229
#        209554
#        234799
#        259465
#        272701
#
# Disc length: 3711 seconds
#
# Revision: 0
# Processed by: cddbd v1.5.2PL0 Copyright (c) Steve Scherf et al.
# Submitted via: ExactAudioCopy v1.0b1
#
DISCID=dc0e7b0f
DTITLE=Laboch Sylwester - Piesni hebrajskie
DYEAR=2006
DGENRE=Worship
TTITLE0=Baruch Anonaj Bajom
TTITLE1=Ose Szalom Bimromaw
TTITLE2=Sza-Alu Szalom Jeruszalaim
TTITLE3=Gol, Gol, Gol...
TTITLE4=Esa Enaj El Heharim
TTITLE5=Hodu LAdonaj Ki Tow
TTITLE6=Nachamu Ami
TTITLE7=Odech Adonaj Bechol Libi
TTITLE8=Adonaj Odech Al Ki
TTITLE9=Baruch Ha Ba Beszem Adonaj
TTITLE10=Kadosz
TTITLE11=Hinej Lo Janum
TTITLE12=Adonaj Li Lo Ira
TTITLE13=Bo Ruach Elohim
TTITLE14=Blogosławienstwo Aaronowe
EXTD=
EXTT0=
EXTT1=
EXTT2=
EXTT3=
EXTT4=
EXTT5=
EXTT6=
EXTT7=
EXTT8=
EXTT9=
EXTT10=
EXTT11=
EXTT12=
EXTT13=
EXTT14=
PLAYORDER=
